<?xml version="1.0" encoding="UTF-8" standalone="no"?>
<!-- Created with Inkscape (http://www.inkscape.org/) -->

<svg
   xmlns:dc="http://purl.org/dc/elements/1.1/"
   xmlns:cc="http://creativecommons.org/ns#"
   xmlns:rdf="http://www.w3.org/1999/02/22-rdf-syntax-ns#"
   xmlns:svg="http://www.w3.org/2000/svg"
   xmlns="http://www.w3.org/2000/svg"
   xmlns:sodipodi="http://sodipodi.sourceforge.net/DTD/sodipodi-0.dtd"
   xmlns:inkscape="http://www.inkscape.org/namespaces/inkscape"
   width="306.98224"
   height="307.35995"
   id="svg2"
   version="1.1"
   inkscape:version="0.48.0 r9654"
   sodipodi:docname="cloudBack.svg">
  <defs
     id="defs4" />
  <sodipodi:namedview
     id="base"
     pagecolor="#ffffff"
     bordercolor="#666666"
     borderopacity="1.0"
     inkscape:pageopacity="0.0"
     inkscape:pageshadow="2"
     inkscape:zoom="1.4"
     inkscape:cx="296.66589"
     inkscape:cy="21.318897"
     inkscape:document-units="px"
     inkscape:current-layer="layer1"
     showgrid="false"
     fit-margin-top="0"
     fit-margin-left="0"
     fit-margin-right="0"
     fit-margin-bottom="0"
     inkscape:window-width="1600"
     inkscape:window-height="1144"
     inkscape:window-x="-4"
     inkscape:window-y="-4"
     inkscape:window-maximized="1" />
  <metadata
     id="metadata7">
    <rdf:RDF>
      <cc:Work
         rdf:about="">
        <dc:format>image/svg+xml</dc:format>
        <dc:type
           rdf:resource="http://purl.org/dc/dcmitype/StillImage" />
        <dc:title></dc:title>
      </cc:Work>
    </rdf:RDF>
  </metadata>
  <g
     inkscape:label="Layer 1"
     inkscape:groupmode="layer"
     id="layer1"
     transform="translate(-91.135618,-234.698)">
    <path
       sodipodi:type="star"
       style="fill:#ffff99;fill-opacity:0.67676762999999995;stroke:none"
       id="path2985"
       sodipodi:sides="20"
       sodipodi:cx="240.41631"
       sodipodi:cy="389.70212"
       sodipodi:r1="153.66277"
       sodipodi:r2="51.921337"
       sodipodi:arg1="1.136552"
       sodipodi:arg2="1.2936316"
       inkscape:flatsided="false"
       inkscape:rounded="0"
       inkscape:randomized="0.05"
       d="m 310.12688,522.36431 -51.57403,-87.25249 -1.79685,106.94614 -23.41011,-95.02421 -26.76494,87.67961 12.43046,-94.1679 -59.20369,80.48447 42.60896,-85.70758 -71.02276,53.23373 67.7716,-75.67931 L 94.358404,446.77517 183.2092,411.0545 91.135618,403.70006 194.01542,385.617 96.050856,366.2153 l 89.834904,12.33481 -74.23394,-56.70763 86.71482,28.37786 -65.91474,-78.43432 84.64677,75.86387 -44.88991,-92.31562 58.47604,78.85714 -4.86793,-94.00508 13.88023,90.35692 27.0338,-95.84525 -12.69956,100.63211 67.90543,-81.20825 -54.16287,100.85569 84.23319,-71.26454 -61.93496,72.71344 97.07672,-32.59555 -97.29925,44.01906 108.26825,-0.91933 -102.8798,18.08306 90.20254,33.41589 -97.4394,-12.68415 89.60046,58.40906 -93.64846,-38.00371 56.65372,80.96766 -67.62372,-77.04513 z"
       inkscape:transform-center-x="-6.7366854"
       inkscape:transform-center-y="-7.994299" />
  </g>
</svg>
