<?xml version="1.0" encoding="UTF-8" standalone="no"?>
<!-- Created with Inkscape (http://www.inkscape.org/) -->

<svg
   xmlns:dc="http://purl.org/dc/elements/1.1/"
   xmlns:cc="http://creativecommons.org/ns#"
   xmlns:rdf="http://www.w3.org/1999/02/22-rdf-syntax-ns#"
   xmlns:svg="http://www.w3.org/2000/svg"
   xmlns="http://www.w3.org/2000/svg"
   xmlns:sodipodi="http://sodipodi.sourceforge.net/DTD/sodipodi-0.dtd"
   xmlns:inkscape="http://www.inkscape.org/namespaces/inkscape"
   width="346.0625"
   height="126"
   id="svg2"
   version="1.1"
   inkscape:version="0.48.0 r9654"
   sodipodi:docname="titleText.svg">
  <defs
     id="defs4">
    <linearGradient
       id="linearGradient3837">
      <stop
         style="stop-color:#a6a6a6;stop-opacity:1;"
         offset="0"
         id="stop3839" />
      <stop
         style="stop-color:#ffffff;stop-opacity:1;"
         offset="1"
         id="stop3841" />
    </linearGradient>
    <linearGradient
       id="linearGradient3831">
      <stop
         id="stop3833"
         offset="0"
         style="stop-color:#9b9b9b;stop-opacity:1;" />
      <stop
         id="stop3835"
         offset="1"
         style="stop-color:#999999;stop-opacity:1" />
    </linearGradient>
  </defs>
  <sodipodi:namedview
     id="base"
     pagecolor="#ffffff"
     bordercolor="#666666"
     borderopacity="1.0"
     inkscape:pageopacity="0.0"
     inkscape:pageshadow="2"
     inkscape:zoom="1.979899"
     inkscape:cx="105.50008"
     inkscape:cy="39.677038"
     inkscape:document-units="px"
     inkscape:current-layer="layer1"
     showgrid="false"
     fit-margin-top="0"
     fit-margin-left="0"
     fit-margin-right="0"
     fit-margin-bottom="0"
     inkscape:window-width="1920"
     inkscape:window-height="1003"
     inkscape:window-x="0"
     inkscape:window-y="24"
     inkscape:window-maximized="1" />
  <metadata
     id="metadata7">
    <rdf:RDF>
      <cc:Work
         rdf:about="">
        <dc:format>image/svg+xml</dc:format>
        <dc:type
           rdf:resource="http://purl.org/dc/dcmitype/StillImage" />
        <dc:title></dc:title>
      </cc:Work>
    </rdf:RDF>
  </metadata>
  <g
     inkscape:label="Layer 1"
     inkscape:groupmode="layer"
     id="layer1"
     transform="translate(-145.86391,-197.77412)">
    <g
       style="font-size:40px;font-style:normal;font-variant:normal;font-weight:normal;font-stretch:normal;line-height:125%;letter-spacing:0px;word-spacing:0px;fill:#cccccc;fill-opacity:1;stroke:#ffffff;stroke-width:3;stroke-miterlimit:4;stroke-dasharray:none;font-family:Red Circle;-inkscape-font-specification:Red Circle"
       id="text2985"
       transform="translate(42.426407,27.274119)">
      <path
         d="m 204.70551,219.99649 -12,0 0,-17.94 -5.28,0 0,-11.94 5.28,0 0,-18.12 31.08,0 0,11.94 -19.08,0 0,6.18 19.08,0 0,11.94 -19.08,0 0,17.94"
         style="font-size:60px;font-weight:bold;text-align:center;text-anchor:middle;fill:#cccccc;fill-opacity:1;stroke:#ffffff;stroke-width:3;stroke-miterlimit:4;stroke-dasharray:none;-inkscape-font-specification:Red Circle Bold"
         id="path2992"
         inkscape:connector-curvature="0" />
      <path
         d="m 247.55019,196.11649 10.8,0 c 1.63997,2e-5 3.03997,-0.57998 4.2,-1.74 1.15997,-1.19997 1.73997,-2.63997 1.74,-4.32 -3e-5,-1.63997 -0.58003,-3.05997 -1.74,-4.26 -1.16003,-1.19996 -2.56003,-1.79996 -4.2,-1.8 0.71997,-0.04 -2.88002,-0.06 -10.8,-0.06 l 0,12.18 m 11.04,12 -11.04,0 0,11.88 -12,0 0,-11.88 -5.82,0 0,-12 5.82,0 0,-24.12 22.8,0 c 4.95997,5e-5 9.17996,1.78005 12.66,5.34 3.51996,3.52004 5.27995,7.76004 5.28,12.72 -5e-5,4.56003 -1.52004,8.54002 -4.56,11.94 6.27995,4.52001 10.33995,10.52001 12.18,18 l -12.54,0 c -1.16004,-4.67999 -3.64004,-8.07999 -7.44,-10.2 -1.56003,-0.83999 -3.34003,-1.39999 -5.34,-1.68"
         style="font-size:60px;font-weight:bold;text-align:center;text-anchor:middle;fill:#cccccc;fill-opacity:1;stroke:#ffffff;stroke-width:3;stroke-miterlimit:4;stroke-dasharray:none;-inkscape-font-specification:Red Circle Bold"
         id="path2994"
         inkscape:connector-curvature="0" />
      <path
         d="m 323.27769,219.99649 -31.08,0 0,-17.94 -5.28,0 0,-11.94 5.28,0 0,-18.12 31.08,0 0,11.94 -19.08,0 0,6.18 19.08,0 0,11.94 -19.08,0 0,6 19.08,0 0,11.94"
         style="font-size:60px;font-weight:bold;text-align:center;text-anchor:middle;fill:#cccccc;fill-opacity:1;stroke:#ffffff;stroke-width:3;stroke-miterlimit:4;stroke-dasharray:none;-inkscape-font-specification:Red Circle Bold"
         id="path2996"
         inkscape:connector-curvature="0" />
      <path
         d="m 367.10582,219.99649 -31.08,0 0,-17.94 -5.28,0 0,-11.94 5.28,0 0,-18.12 31.08,0 0,11.94 -19.08,0 0,6.18 19.08,0 0,11.94 -19.08,0 0,6 19.08,0 0,11.94"
         style="font-size:60px;font-weight:bold;text-align:center;text-anchor:middle;fill:#cccccc;fill-opacity:1;stroke:#ffffff;stroke-width:3;stroke-miterlimit:4;stroke-dasharray:none;-inkscape-font-specification:Red Circle Bold"
         id="path2998"
         inkscape:connector-curvature="0" />
      <path
         d="m 116.88894,294.93649 c -3.28001,0 -6.1,-1.16 -8.46,-3.48 -2.32,-2.31999 -3.48,-5.13999 -3.48,-8.46 l 0,-6 12,0 0,6 15.72,0 0,-35.94 12,0 0,36 c -4e-5,2.80001 -1.30004,5.50001 -3.9,8.1 -2.56003,2.56 -5.26003,3.84 -8.1,3.84 l -15.78,-0.06"
         style="font-size:60px;font-weight:bold;text-align:center;text-anchor:middle;fill:#cccccc;fill-opacity:1;stroke:#ffffff;stroke-width:3;stroke-miterlimit:4;stroke-dasharray:none;-inkscape-font-specification:Red Circle Bold"
         id="path3000"
         inkscape:connector-curvature="0" />
      <path
         d="m 188.51207,294.99649 -31.08,0 0,-17.94 -5.28,0 0,-11.94 5.28,0 0,-18.12 31.08,0 0,11.94 -19.08,0 0,6.18 19.08,0 0,11.94 -19.08,0 0,6 19.08,0 0,11.94"
         style="font-size:60px;font-weight:bold;text-align:center;text-anchor:middle;fill:#cccccc;fill-opacity:1;stroke:#ffffff;stroke-width:3;stroke-miterlimit:4;stroke-dasharray:none;-inkscape-font-specification:Red Circle Bold"
         id="path3002"
         inkscape:connector-curvature="0" />
      <path
         d="m 235.70019,247.05649 0,23.1 c -4e-5,2.68002 0.73996,5.24002 2.22,7.68 1.51996,2.56002 3.39996,4.26001 5.64,5.1 2.19995,-0.79999 4.05995,-2.45999 5.58,-4.98 1.47995,-2.39998 2.23995,-4.89998 2.28,-7.5 -5e-5,0.44002 -5e-5,-7.35997 0,-23.4 l 12,0 0,23.1 c -7e-5,5.96002 -1.92006,11.34001 -5.76,16.14 -3.80006,4.8 -8.50005,7.68 -14.1,8.64 -5.72004,-1 -10.34004,-3.48 -13.86,-7.44 -3.52003,3.96 -8.14002,6.44 -13.86,7.44 -5.60001,-0.96 -10.32001,-3.84 -14.16,-8.64 -3.8,-4.79999 -5.7,-10.17998 -5.7,-16.14 l 0,-23.16 12,0 0,23.16 c -1e-5,2.68002 0.73999,5.24002 2.22,7.68 1.51999,2.56002 3.39998,4.26001 5.64,5.1 2.31998,-0.83999 4.21998,-2.55998 5.7,-5.16 1.43997,-2.43998 2.15997,-4.97998 2.16,-7.62 l 0,-23.16 12,0 0,0.06"
         style="font-size:60px;font-weight:bold;text-align:center;text-anchor:middle;fill:#cccccc;fill-opacity:1;stroke:#ffffff;stroke-width:3;stroke-miterlimit:4;stroke-dasharray:none;-inkscape-font-specification:Red Circle Bold"
         id="path3004"
         inkscape:connector-curvature="0" />
      <path
         d="m 307.22301,294.99649 -31.08,0 0,-17.94 -5.28,0 0,-11.94 5.28,0 0,-18.12 31.08,0 0,11.94 -19.08,0 0,6.18 19.08,0 0,11.94 -19.08,0 0,6 19.08,0 0,11.94"
         style="font-size:60px;font-weight:bold;text-align:center;text-anchor:middle;fill:#cccccc;fill-opacity:1;stroke:#ffffff;stroke-width:3;stroke-miterlimit:4;stroke-dasharray:none;-inkscape-font-specification:Red Circle Bold"
         id="path3006"
         inkscape:connector-curvature="0" />
      <path
         d="m 348.77113,294.99649 -31.08,0 0,-48 12,0 0,36.06 19.08,0 0,11.94"
         style="font-size:60px;font-weight:bold;text-align:center;text-anchor:middle;fill:#cccccc;fill-opacity:1;stroke:#ffffff;stroke-width:3;stroke-miterlimit:4;stroke-dasharray:none;-inkscape-font-specification:Red Circle Bold"
         id="path3008"
         inkscape:connector-curvature="0" />
      <path
         d="m 389.60582,294.99649 -31.08,0 0,-17.94 -5.28,0 0,-11.94 5.28,0 0,-18.12 31.08,0 0,11.94 -19.08,0 0,6.18 19.08,0 0,11.94 -19.08,0 0,6 19.08,0 0,11.94"
         style="font-size:60px;font-weight:bold;text-align:center;text-anchor:middle;fill:#cccccc;fill-opacity:1;stroke:#ffffff;stroke-width:3;stroke-miterlimit:4;stroke-dasharray:none;-inkscape-font-specification:Red Circle Bold"
         id="path3010"
         inkscape:connector-curvature="0" />
      <path
         d="m 412.07394,283.05649 12,0 c 3.27997,1e-5 6.09997,-1.17999 8.46,-3.54 2.35996,-2.39998 3.53996,-5.25998 3.54,-8.58 -4e-5,-3.31997 -1.18004,-6.13997 -3.54,-8.46 -2.32003,-2.35996 -5.14003,-3.53996 -8.46,-3.54 l -12,0 0,24.12 m -12,11.94 0,-48 24,0 c 6.59997,5e-5 12.23996,2.34005 16.92,7.02 4.67995,4.68004 7.01995,10.32003 7.02,16.92 -5e-5,6.64002 -2.34005,12.32001 -7.02,17.04 -4.68004,4.68 -10.32003,7.02 -16.92,7.02 l -24,0"
         style="font-size:60px;font-weight:bold;text-align:center;text-anchor:middle;fill:#cccccc;fill-opacity:1;stroke:#ffffff;stroke-width:3;stroke-miterlimit:4;stroke-dasharray:none;-inkscape-font-specification:Red Circle Bold"
         id="path3012"
         inkscape:connector-curvature="0" />
    </g>
  </g>
</svg>
